<?xml version="1.0" encoding="UTF-8"?>
<svg xmlns="http://www.w3.org/2000/svg" viewBox="0 0 34 34" ><g id="Layer_2" data-name="Layer 2"><path d="M28.272,1H7.728A3.732,3.732,0,0,0,4,4.728V7H3A1,1,0,0,0,3,9H4v4H3a1,1,0,0,0,0,2H4v4H3a1,1,0,0,0,0,2H4v4H3a1,1,0,0,0,0,2H4v2.272A3.732,3.732,0,0,0,7.728,33H28.272A3.732,3.732,0,0,0,32,29.272V4.728A3.732,3.732,0,0,0,28.272,1ZM30,29.272A1.73,1.73,0,0,1,28.272,31H7.728A1.73,1.73,0,0,1,6,29.272V27H7a1,1,0,0,0,0-2H6V21H7a1,1,0,0,0,0-2H6V15H7a1,1,0,0,0,0-2H6V9H7A1,1,0,0,0,7,7H6V4.728A1.73,1.73,0,0,1,7.728,3H28.272A1.73,1.73,0,0,1,30,4.728Z"/><path d="M19,17a5,5,0,1,0-5-5A5.006,5.006,0,0,0,19,17Zm0-8a3,3,0,1,1-3,3A3,3,0,0,1,19,9Z"/><path d="M19,18a8.009,8.009,0,0,0-8,8,1,1,0,0,0,1,1H26a1,1,0,0,0,1-1A8.009,8.009,0,0,0,19,18Zm-5.917,7a6,6,0,0,1,11.834,0Z"/></g></svg>
