<svg id="Icons" viewBox="0 0 74 74" xmlns="http://www.w3.org/2000/svg"><path d="m62.725 66.516h-45.968a1 1 0 0 1 -1-1v-62.516a1 1 0 0 1 1-1h31.77a1 1 0 0 1 .707.292l14.2 14.189a1 1 0 0 1 .293.707v48.328a1 1 0 0 1 -1.002 1zm-44.968-2h43.968v-46.916l-13.612-13.6h-30.356z"/><path d="m58.338 72h-47.063a1 1 0 0 1 -1-1v-63.613a1 1 0 0 1 1-1h5.484a1 1 0 0 1 0 2h-4.484v61.613h45.063v-4.484a1 1 0 0 1 2 0v5.484a1 1 0 0 1 -1 1z"/><path d="m62.725 18.188h-14.2a1 1 0 0 1 -1-1v-14.188a1 1 0 0 1 2 0v13.188h13.2a1 1 0 0 1 0 2z"/><path d="m56 24.629h-32.518a1 1 0 0 1 0-2h32.518a1 1 0 0 1 0 2z"/><path d="m56 34.258h-32.518a1 1 0 0 1 0-2h32.518a1 1 0 0 1 0 2z"/><path d="m41 15h-17.518a1 1 0 0 1 0-2h17.518a1 1 0 0 1 0 2z"/><path d="m39.741 59.458a10 10 0 1 1 10-10 10.011 10.011 0 0 1 -10 10zm0-18a8 8 0 1 0 8 8 8.009 8.009 0 0 0 -8-8z"/><path d="m38.183 52.969a.993.993 0 0 1 -.707-.293l-2.1-2.1a1 1 0 0 1 1.414-1.414l1.389 1.389 4.321-4.311a1 1 0 0 1 1.414 1.414l-5.024 5.022a.993.993 0 0 1 -.707.293z"/></svg>