<svg viewBox="0 0 24 24" xmlns="http://www.w3.org/2000/svg"><g id="symbol/number-shield" fill="rgb(0,0,0)" fill-rule="evenodd"><path id="Fill-52" d="m9.6406 13h2.969l.75-3h-2.969zm2.859 3c-.04 0-.08-.005-.121-.015-.268-.067-.43-.339-.364-.606l.345-1.379h-2.969l-.405 1.621c-.067.268-.338.429-.607.364-.268-.067-.43-.339-.364-.606l.345-1.379h-.86c-.276 0-.5-.224-.5-.5s.224-.5.5-.5h1.11l.75-3h-1.86c-.276 0-.5-.224-.5-.5s.224-.5.5-.5h2.11l.405-1.621c.066-.269.337-.43.606-.364.269.067.431.339.365.606l-.345 1.379h2.969l.405-1.621c.066-.269.332-.43.606-.364.269.067.431.339.365.606l-.345 1.379h.859c.277 0 .5.224.5.5s-.223.5-.5.5h-1.109l-.75 3h1.859c.277 0 .5.224.5.5s-.223.5-.5.5h-2.109l-.405 1.621c-.057.228-.261.379-.486.379z"/><path id="Fill-54" d="m4.002 7.7764c.069 6.276 2.524 10.586 7.498 13.163 4.974-2.577 7.429-6.887 7.498-13.163l-7.498-4.687zm7.498 14.224c-.076 0-.153-.018-.224-.053-5.492-2.746-8.276-7.608-8.276-14.447 0-.173.089-.333.235-.424l8-5c.163-.102.368-.102.53 0l8 5c.146.091.235.251.235.424 0 6.839-2.784 11.701-8.276 14.447-.071.035-.148.053-.224.053z"/></g></svg>