<svg id="Layer_1" enable-background="new 0 0 468 468" viewBox="0 0 468 468" xmlns="http://www.w3.org/2000/svg"><g><path d="m357.473 32.562c-32.667 0-60.507 20.982-70.77 50.16-15.465-9.121-33.481-14.364-52.703-14.364-19.339 0-37.458 5.307-52.985 14.531-10.494-28.747-38.129-49.328-70.487-49.328-41.355 0-75 33.614-75 74.93s33.645 74.93 75 74.93c6.787 0 13.433-.904 19.824-2.646 3.943 48.339 41.146 87.418 88.649 94.305v78.434h30v-78.434c47.823-6.933 85.208-46.494 88.725-95.284 6.366 1.729 12.985 2.627 19.748 2.627 41.355 0 75-33.614 75-74.93s-33.646-74.931-75.001-74.931zm-291.946 75.929c0-24.79 20.187-44.958 45-44.958 23.423 0 42.714 17.974 44.803 40.841-10.574 12.214-18.346 26.908-22.326 43.076-6.803 3.937-14.478 6-22.477 6-24.813-.001-45-20.169-45-44.959zm168.473 137.702c-40.804 0-74-33.165-74-73.931s33.196-73.931 74-73.931 74 33.165 74 73.931-33.196 73.931-74 73.931zm123.473-93.742c-8.115 0-15.891-2.124-22.766-6.174-4.072-15.743-11.754-30.05-22.108-41.985 1.65-23.3 21.139-41.757 44.873-41.757 24.813 0 45 20.168 45 44.958s-20.186 44.958-44.999 44.958z"/><path d="m338.974 305.31c-5.339-8.143-11.639-15.675-18.726-22.387l20.64-21.751c8.771 8.308 16.571 17.633 23.182 27.715z"/><path d="m374.384 435.438h-280.768c-8.284 0-14.616-7.084-14.616-15.36v-46.24c0-43.033 17.03-83.044 48.3-112.662l20.736 21.751c-25.234 23.9-39.036 56.187-39.036 90.91v31.629h250v-31.629c0-13.546-1.956-26.862-6.192-39.579l28.369-9.464c5.255 15.775 7.823 32.275 7.823 49.043v46.24c0 8.277-6.332 15.361-14.616 15.361z"/><g><path d="m82 291.572h-67c-8.284 0-15-6.292-15-14.568v-31.465c0-25.3 8.784-50.026 24.734-69.623l23.276 18.909c-11.782 14.476-18.01 32.012-18.01 50.713v16.062h52z"/></g><g><path d="m453 290.573h-68v-29.973h53v-16.06c0-18.308-5.994-35.553-17.334-49.872l23.526-18.598c15.576 19.667 23.808 43.343 23.808 68.47v31.465c0 8.277-6.716 14.568-15 14.568z"/></g></g></svg>