<svg id="Layer_1_1_" enable-background="new 0 0 64 64" viewBox="0 0 64 64" xmlns="http://www.w3.org/2000/svg"><path d="m53 2c-4.962 0-9 4.038-9 9s4.038 9 9 9 9-4.038 9-9-4.038-9-9-9zm-3.827 14.854c.157-.744.511-1.426 1.051-1.973.764-.755 1.771-1.171 2.837-1.171 1.856 0 3.45 1.305 3.867 3.081-1.121.762-2.473 1.209-3.928 1.209-1.412 0-2.726-.424-3.827-1.146zm1.887-7.144c0-1.103.897-2 2-2s2 .897 2 2-.897 2-2 2-2-.897-2-2zm7.457 5.583c-.534-1.203-1.44-2.191-2.576-2.821.69-.719 1.119-1.69 1.119-2.762 0-2.206-1.794-4-4-4s-4 1.794-4 4c0 1.065.425 2.028 1.105 2.745-.489.27-.947.606-1.357 1.012-.552.56-.964 1.212-1.258 1.915-.967-1.2-1.55-2.723-1.55-4.382 0-3.86 3.14-7 7-7s7 3.14 7 7c0 1.618-.557 3.106-1.483 4.293z"/><path d="m53 44c-4.962 0-9 4.038-9 9s4.038 9 9 9 9-4.038 9-9-4.038-9-9-9zm-3.827 14.854c.157-.744.511-1.426 1.051-1.973.764-.755 1.771-1.171 2.837-1.171 1.856 0 3.45 1.305 3.867 3.081-1.121.762-2.473 1.209-3.928 1.209-1.412 0-2.726-.424-3.827-1.146zm1.887-7.144c0-1.103.897-2 2-2s2 .897 2 2-.897 2-2 2-2-.897-2-2zm7.457 5.583c-.534-1.203-1.44-2.191-2.576-2.821.69-.719 1.119-1.69 1.119-2.762 0-2.206-1.794-4-4-4s-4 1.794-4 4c0 1.065.425 2.028 1.105 2.745-.489.27-.947.606-1.357 1.012-.552.56-.964 1.212-1.258 1.915-.967-1.2-1.55-2.723-1.55-4.382 0-3.86 3.14-7 7-7s7 3.14 7 7c0 1.618-.557 3.106-1.483 4.293z"/><path d="m20 11c0-4.962-4.038-9-9-9s-9 4.038-9 9 4.038 9 9 9 9-4.038 9-9zm-12.827 5.854c.157-.744.511-1.426 1.051-1.973.764-.755 1.771-1.171 2.837-1.171 1.856 0 3.45 1.305 3.867 3.081-1.121.762-2.473 1.209-3.928 1.209-1.412 0-2.726-.424-3.827-1.146zm1.887-7.144c0-1.103.897-2 2-2s2 .897 2 2-.897 2-2 2-2-.897-2-2zm-5.06 1.29c0-3.86 3.14-7 7-7s7 3.14 7 7c0 1.618-.557 3.106-1.483 4.293-.534-1.203-1.44-2.191-2.576-2.821.69-.719 1.119-1.69 1.119-2.762 0-2.206-1.794-4-4-4s-4 1.794-4 4c0 1.065.425 2.028 1.105 2.745-.489.27-.947.606-1.357 1.012-.552.56-.964 1.212-1.258 1.915-.967-1.2-1.55-2.723-1.55-4.382z"/><path d="m11 62c4.962 0 9-4.038 9-9s-4.038-9-9-9-9 4.038-9 9 4.038 9 9 9zm-3.827-3.146c.157-.744.511-1.426 1.051-1.973.764-.755 1.771-1.171 2.837-1.171 1.856 0 3.45 1.305 3.867 3.081-1.121.762-2.473 1.209-3.928 1.209-1.412 0-2.726-.424-3.827-1.146zm1.887-7.144c0-1.103.897-2 2-2s2 .897 2 2-.897 2-2 2-2-.897-2-2zm1.94-5.71c3.86 0 7 3.14 7 7 0 1.618-.557 3.106-1.483 4.293-.534-1.203-1.44-2.191-2.576-2.821.69-.719 1.119-1.69 1.119-2.762 0-2.206-1.794-4-4-4s-4 1.794-4 4c0 1.065.425 2.028 1.105 2.745-.489.27-.947.606-1.357 1.012-.552.56-.964 1.212-1.258 1.915-.967-1.2-1.55-2.723-1.55-4.382 0-3.86 3.14-7 7-7z"/><path d="m41.6 9.997.8-1.833c-3.286-1.436-6.785-2.164-10.4-2.164s-7.114.728-10.4 2.164l.8 1.833c3.033-1.325 6.263-1.997 9.6-1.997s6.567.672 9.6 1.997z"/><path d="m8.164 21.6c-1.436 3.286-2.164 6.785-2.164 10.4 0 3.542.7 6.977 2.081 10.207l1.839-.786c-1.274-2.981-1.92-6.15-1.92-9.421 0-3.337.672-6.567 1.997-9.6z"/><path d="m41.42 54.081c-2.98 1.273-6.149 1.919-9.42 1.919s-6.44-.646-9.42-1.919l-.786 1.839c3.23 1.38 6.664 2.08 10.206 2.08s6.976-.7 10.207-2.08z"/><path d="m55.92 42.207c1.38-3.231 2.08-6.665 2.08-10.207 0-3.615-.728-7.114-2.164-10.4l-1.833.8c1.325 3.032 1.997 6.262 1.997 9.6 0 3.271-.646 6.44-1.919 9.42z"/><path d="m45 41v-8h1c.347 0 .668-.18.851-.474.182-.295.199-.663.044-.973l-2-4c-.17-.339-.516-.553-.895-.553h-5v-6c0-.552-.448-1-1-1h-2v-3c0-.552-.448-1-1-1h-2v-2h-2v2h-2c-.552 0-1 .448-1 1v3h-2c-.552 0-1 .448-1 1v6h-5c-.379 0-.725.214-.895.553l-2 4c-.155.31-.138.678.044.973.183.294.504.474.851.474h1v8c0 .552.448 1 1 1h5c0 .552.448 1 1 1h12c.552 0 1-.448 1-1h5c.552 0 1-.448 1-1zm-24.382-12h4.382v2h-5.382zm.382 11v-7h4v7zm9-22h4v2h-4zm3 23h-2v-3c0-.551.449-1 1-1s1 .449 1 1zm4 0h-2v-3c0-1.654-1.346-3-3-3s-3 1.346-3 3v3h-2v-19h10zm6.382-12 1 2h-5.382v-2zm-4.382 11v-7h4v7z"/><path d="m29 24h2v2h-2z"/><path d="m29 28h2v2h-2z"/><path d="m29 32h2v2h-2z"/><path d="m33 24h2v2h-2z"/><path d="m33 28h2v2h-2z"/><path d="m33 32h2v2h-2z"/><path d="m40 35h2v2h-2z"/><path d="m22 35h2v2h-2z"/></svg>