<?xml version="1.0"?>
<svg xmlns="http://www.w3.org/2000/svg" id="Layer_3" data-name="Layer 3" viewBox="0 0 64 64" ><path d="M34,33a1,1,0,0,0,1-1V28.965a2.345,2.345,0,0,0,1.118-4.152l-7.931-6.344a6.7,6.7,0,0,0-8.374,0l-7.931,6.344A2.345,2.345,0,0,0,13,28.965V32a1,1,0,0,0,1,1h1v6H14a1,1,0,0,0-1,1v4a1,1,0,0,0,1,1H34a1,1,0,0,0,1-1V40a1,1,0,0,0-1-1H33V33ZM15,31V29H33v2Zm6,8V33h6v6ZM13.132,26.375l7.931-6.345a4.825,4.825,0,0,1,5.874,0l7.931,6.345a.351.351,0,0,1-.219.625h-21.3a.351.351,0,0,1-.219-.625ZM17,33h2v6H17ZM33,43H15V41H33Zm-2-4H29V33h2Z"/><circle cx="24" cy="23" r="2"/><path d="M41,47H7a1,1,0,0,0-1,1v4a1,1,0,0,0,1,1H41a1,1,0,0,0,1-1V48A1,1,0,0,0,41,47Zm-1,4H8V49H40Z"/><path d="M62,23A12.009,12.009,0,0,0,52,11.181V4a3,3,0,0,0-3-3H11A3,3,0,0,0,8,4V5H5A3,3,0,0,0,2,8V60a3,3,0,0,0,3,3H43a3,3,0,0,0,3-3V59h3a3,3,0,0,0,3-3V34.819A12.009,12.009,0,0,0,62,23ZM10,4a1,1,0,0,1,1-1H49a1,1,0,0,1,1,1v7a11.922,11.922,0,0,0-4,.7V8a3,3,0,0,0-3-3H10ZM43,61H5a1,1,0,0,1-1-1V8A1,1,0,0,1,5,7H43a1,1,0,0,1,1,1v4.624a11.972,11.972,0,0,0,0,20.752V60A1,1,0,0,1,43,61Zm7-5a1,1,0,0,1-1,1H46V34.3a11.922,11.922,0,0,0,4,.7Zm0-23A10,10,0,1,1,60,23,10.011,10.011,0,0,1,50,33Z"/><path d="M57.707,18.293l-2-2a1,1,0,0,0-1.414,0L47,23.586l-1.293-1.293a1,1,0,0,0-1.414,0l-2,2a1,1,0,0,0,0,1.414l4,4a1,1,0,0,0,1.414,0l10-10A1,1,0,0,0,57.707,18.293ZM47,27.586,44.414,25,45,24.414l1.293,1.293a1,1,0,0,0,1.414,0L55,18.414l.586.586Z"/><rect x="8" y="13" width="32" height="2"/><rect x="12" y="9" width="24" height="2"/></svg>
