<?xml version="1.0" encoding="UTF-8" standalone="no"?>
<!-- Created with Inkscape (http://www.inkscape.org/) -->

<svg
   version="1.1"
   id="svg951"
   xml:space="preserve"
   viewBox="0 0 682.66669 682.66669"
   xmlns="http://www.w3.org/2000/svg"
   xmlns:svg="http://www.w3.org/2000/svg"><defs
     id="defs955"><clipPath
       clipPathUnits="userSpaceOnUse"
       id="clipPath965"><path
         d="M 0,512 H 512 V 0 H 0 Z"
         id="path963" /></clipPath><clipPath
       clipPathUnits="userSpaceOnUse"
       id="clipPath1013"><path
         d="M 0,512 H 512 V 0 H 0 Z"
         id="path1011" /></clipPath></defs><g
     id="g957"
     transform="matrix(1.3333333,0,0,-1.3333333,0,682.66667)"><g
       id="g959"><g
         id="g961"
         clip-path="url(#clipPath965)"><g
           id="g967"
           transform="translate(448,392)"><path
             d="m 0,0 54,-54 v -328 h -492 v 328 l 54,54"
             style="fill:none;stroke:#000000;stroke-width:20;stroke-linecap:round;stroke-linejoin:round;stroke-miterlimit:10;stroke-dasharray:none;stroke-opacity:1"
             id="path969" /></g><g
           id="g971"
           transform="translate(499,335)"><path
             d="M 0,0 -243.45,-179.616 -485.783,-1.117"
             style="fill:none;stroke:#000000;stroke-width:20;stroke-linecap:round;stroke-linejoin:round;stroke-miterlimit:10;stroke-dasharray:none;stroke-opacity:1"
             id="path973" /></g><g
           id="g975"
           transform="translate(22.6665,22.6665)"><path
             d="M 0,0 170.321,170.321"
             style="fill:none;stroke:#000000;stroke-width:20;stroke-linecap:round;stroke-linejoin:round;stroke-miterlimit:10;stroke-dasharray:none;stroke-opacity:1"
             id="path977" /></g><g
           id="g979"
           transform="translate(486.5,25.5)"><path
             d="M 0,0 -170.844,170.844"
             style="fill:none;stroke:#000000;stroke-width:20;stroke-linecap:round;stroke-linejoin:round;stroke-miterlimit:10;stroke-dasharray:none;stroke-opacity:1"
             id="path981" /></g><g
           id="g983"
           transform="translate(210.6777,502)"><path
             d="M 0,0 H -146.678 V -204.862"
             style="fill:none;stroke:#000000;stroke-width:20;stroke-linecap:round;stroke-linejoin:round;stroke-miterlimit:10;stroke-dasharray:none;stroke-opacity:1"
             id="path985" /></g><g
           id="g987"
           transform="translate(448,297.9868)"><path
             d="M 0,0 V 204.013 H -146.619"
             style="fill:none;stroke:#000000;stroke-width:20;stroke-linecap:round;stroke-linejoin:round;stroke-miterlimit:10;stroke-dasharray:none;stroke-opacity:1"
             id="path989" /></g><g
           id="g991"
           transform="translate(255.6782,502)"><path
             d="M 0,0 V 0"
             style="fill:none;stroke:#000000;stroke-width:20;stroke-linecap:round;stroke-linejoin:round;stroke-miterlimit:10;stroke-dasharray:none;stroke-opacity:1"
             id="path993" /></g></g></g><g
       id="g995"
       transform="translate(259.563,412.77)"><path
         d="M 0,0 V -96"
         style="fill:none;stroke:#000000;stroke-width:20;stroke-linecap:round;stroke-linejoin:round;stroke-miterlimit:10;stroke-dasharray:none;stroke-opacity:1"
         id="path997" /></g><g
       id="g999"
       transform="translate(156.5015,412.77)"><path
         d="M 0,0 H 60.583 L -1.969,-96 h 64.043"
         style="fill:none;stroke:#000000;stroke-width:20;stroke-linecap:round;stroke-linejoin:round;stroke-miterlimit:10;stroke-dasharray:none;stroke-opacity:1"
         id="path1001" /></g><g
       id="g1003"
       transform="translate(303.1147,412.77)"><path
         d="M 0,0 V -96"
         style="fill:none;stroke:#000000;stroke-width:20;stroke-linecap:round;stroke-linejoin:round;stroke-miterlimit:10;stroke-dasharray:none;stroke-opacity:1"
         id="path1005" /></g><g
       id="g1007"><g
         id="g1009"
         clip-path="url(#clipPath1013)"><g
           id="g1015"
           transform="translate(357.4673,385.6787)"><path
             d="m 0,0 c 0,-14.962 -12.66,-27.091 -27.622,-27.091 -7.42,0 -26.545,-0.119 -26.545,-0.119 0,0 -0.119,19.668 -0.119,27.21 0,6.194 -0.067,27.091 -0.067,27.091 h 26.731 C -12.66,27.091 0,14.962 0,0 Z"
             style="fill:none;stroke:#000000;stroke-width:20;stroke-linecap:round;stroke-linejoin:round;stroke-miterlimit:10;stroke-dasharray:none;stroke-opacity:1"
             id="path1017" /></g></g></g></g></svg>
