<svg id="Line" enable-background="new 0 0 32 32" viewBox="0 0 32 32" xmlns="http://www.w3.org/2000/svg"><path d="m7 19c-.553 0-1-.448-1-1s.447-1 1-1h2.5c.275 0 .5-.224.5-.5s-.225-.5-.5-.5h-1c-1.379 0-2.5-1.122-2.5-2.5 0-1.207.86-2.217 2-2.449v-.551c0-.552.447-1 1-1s1 .448 1 1v.5h.5c.553 0 1 .448 1 1s-.447 1-1 1h-2c-.275 0-.5.224-.5.5s.225.5.5.5h1c1.379 0 2.5 1.122 2.5 2.5 0 1.207-.86 2.217-2 2.449v.551c0 .552-.447 1-1 1s-1-.448-1-1v-.5z"/><path d="m15 28c.553 0 1-.448 1-1v-11h11c.553 0 1-.448 1-1 0-7.168-5.832-13-13-13s-13 5.832-13 13 5.832 13 13 13zm0-24c5.729 0 10.448 4.401 10.955 10h-10.955c-.553 0-1 .448-1 1v10.955c-5.599-.507-10-5.226-10-10.955 0-6.065 4.935-11 11-11z"/><path d="m30 17h-12c-.553 0-1 .448-1 1v12c0 .552.447 1 1 1 7.168 0 13-5.832 13-13 0-.552-.447-1-1-1zm-11 11.955v-9.955h9.955c-.476 5.27-4.685 9.478-9.955 9.955z"/></svg>