<svg id="Capa_1" enable-background="new 0 0 511.62 511.62" viewBox="0 0 511.62 511.62" xmlns="http://www.w3.org/2000/svg"><g><g id="Layer_2_8_"><g id="graph_statistics_stats_graphic_bars_business_and_finance_finances_business_8_"><path d="m501.615 511.61h-491.33c-5.523 0-10-4.477-10-10l-.28-491.61c0-5.523 4.477-10 10-10 5.523 0 10 4.477 10 10l.28 481.62h481.33c5.523 0 10 4.477 10 10s-4.477 10-10 10z"/><path d="m60.175 376.2c-5.523-.021-9.983-4.515-9.962-10.037.011-3.042 1.407-5.914 3.792-7.803l186.4-147.71c2.769-2.194 6.491-2.765 9.79-1.5l78.49 30.16 137-99.56c4.468-3.247 10.723-2.258 13.97 2.21s2.258 10.723-2.21 13.97l-141.44 102.76c-2.743 1.991-6.307 2.458-9.47 1.24l-78.23-30.06-181.92 144.13c-1.762 1.414-3.951 2.189-6.21 2.2z"/><path d="m458.675 222.07c-.672-.002-1.341-.069-2-.2-5.415-1.085-8.925-6.355-7.84-11.77l10.89-54.41-54.44-10.89c-5.431-1.005-9.018-6.223-8.013-11.653 1.005-5.431 6.223-9.018 11.653-8.013.094.017.187.036.28.056l64.27 12.81c5.416 1.08 8.931 6.346 7.852 11.762-.001.003-.001.005-.002.008l-12.86 64.23c-.921 4.681-5.02 8.06-9.79 8.07z"/></g></g></g></svg>