<svg id="Layer_1" enable-background="new 0 0 60 60" viewBox="0 0 60 60" xmlns="http://www.w3.org/2000/svg"><path d="m13.5 54h4c.552 0 1-.448 1-1v-12.253c1.067.239 2.13.349 3.188.349 3.433 0 6.817-1.086 10.123-2.147 5.277-1.694 10.261-3.295 15.219-.656.309.164.684.154.985-.025.301-.181.485-.506.485-.857v-24c0-.37-.204-.709-.53-.883-5.704-3.035-11.33-1.229-16.77.518-4.398 1.412-8.566 2.745-12.7 1.646v-2.074c.615-.703 1-1.612 1-2.618 0-2.206-1.794-4-4-4s-4 1.794-4 4c0 1.005.385 1.914 1 2.618v40.382c0 .552.448 1 1 1zm1-2v-38.142c.322.084.653.142 1 .142s.678-.058 1-.142v38.142zm32-24.139c-5.2-2.046-10.328-.412-15.3 1.184-4.398 1.412-8.566 2.745-12.7 1.646v-5.944c1.067.239 2.13.349 3.188.349 3.433 0 6.817-1.086 10.123-2.147 5.089-1.633 9.905-3.169 14.689-.911zm-15.3 9.184c-4.398 1.412-8.566 2.746-12.7 1.647v-5.944c1.067.239 2.13.349 3.188.349 3.433 0 6.817-1.086 10.123-2.147 5.089-1.633 9.905-3.169 14.689-.911v5.81c-5.201-2.047-10.328-.401-15.3 1.196zm.611-22.096c5.089-1.633 9.905-3.179 14.689-.922v5.834c-5.2-2.045-10.328-.412-15.3 1.184-4.398 1.412-8.566 2.746-12.7 1.647v-5.946c4.526 1.014 8.986-.409 13.311-1.797zm-16.311-6.949c1.103 0 2 .897 2 2s-.897 2-2 2-2-.897-2-2 .897-2 2-2z"/></svg>