<?xml version="1.0" encoding="iso-8859-1"?>
<!-- Generator: Adobe Illustrator 19.0.0, SVG Export Plug-In . SVG Version: 6.00 Build 0)  -->
<svg version="1.1" id="Capa_1" xmlns="http://www.w3.org/2000/svg" xmlns:xlink="http://www.w3.org/1999/xlink" x="0px" y="0px"
	 viewBox="0 0 512 512" style="enable-background:new 0 0 512 512;" xml:space="preserve">
<g>
	<g>
		<path d="M501.997,0h-319.99c-5.523,0-10,4.477-10,10v106c0,5.523,4.477,10,10,10s10-4.477,10-10V20h299.99v152
			c0,5.523,4.477,10,10,10s10-4.477,10-10V10C511.997,4.477,507.52,0,501.997,0z"/>
	</g>
</g>
<g>
	<g>
		<path d="M509.067,208.51c-1.86-1.86-4.44-2.93-7.07-2.93s-5.21,1.07-7.07,2.93c-1.86,1.86-2.93,4.44-2.93,7.07
			s1.07,5.21,2.93,7.07c1.86,1.86,4.44,2.93,7.07,2.93s5.21-1.07,7.07-2.93c1.86-1.86,2.93-4.43,2.93-7.07
			C511.997,212.95,510.927,210.37,509.067,208.51z"/>
	</g>
</g>
<g>
	<g>
		<path d="M501.997,246c-5.523,0-10,4.477-10,10v236H164.498l90.823-116.358c0.178-0.228,0.344-0.461,0.5-0.701
			c20.764-25.563,32.186-57.739,32.186-90.744c0-79.402-64.598-144-144-144s-144,64.598-144,144
			c0,30.92,10.053,61.173,28.425,85.892C11.6,378.475,0.003,395.856,0.003,415.904c0,15.581,6.971,30.12,19.126,39.891
			c1.776,1.428,3.986,2.206,6.265,2.206L96.995,458l26.527,34H49.507c-5.523,0-10,4.477-10,10s4.477,10,10,10h452.49
			c5.523,0,10-4.477,10-10V256C511.997,250.477,507.52,246,501.997,246z M29.19,438.001c-5.875-5.831-9.187-13.717-9.187-22.097
			c0-17.182,13.978-31.16,31.159-31.16c13.742,0,26.037,9.204,29.897,22.383c1.021,3.485,3.851,6.142,7.393,6.942
			c3.544,0.8,7.239-0.382,9.66-3.089c4.11-4.599,9.998-7.236,16.151-7.236c11.943,0,21.659,9.716,21.659,21.66
			c0,4.588-1.411,8.948-4.031,12.595L29.19,438.001z M122.363,458l14.076-0.001c2.62,0,5.135-1.028,7.005-2.863
			c8.046-7.898,12.478-18.457,12.478-29.731c0-22.971-18.688-41.66-41.659-41.66c-6.967,0-13.756,1.755-19.772,5.001
			c-9.211-14.596-25.531-24.001-43.329-24.001c-0.512,0-1.018,0.024-1.526,0.039l-1.432-1.836c-0.116-0.161-0.237-0.319-0.364-0.474
			c-17.948-22.021-27.833-49.821-27.833-78.276c0-68.374,55.626-124,124-124s124,55.626,124,124
			c0,28.762-10.07,56.791-28.354,78.922c-0.295,0.357-0.563,0.731-0.801,1.119L144.01,485.746L122.363,458z"/>
	</g>
</g>
<g>
	<g>
		<path d="M17.077,494.93c-1.86-1.86-4.44-2.93-7.07-2.93s-5.21,1.07-7.07,2.93s-2.93,4.44-2.93,7.07s1.07,5.21,2.93,7.07
			c1.86,1.86,4.44,2.93,7.07,2.93s5.21-1.07,7.07-2.93c1.86-1.86,2.93-4.44,2.93-7.07S18.937,496.79,17.077,494.93z"/>
	</g>
</g>
<g>
	<g>
		<path d="M454.007,50h-48c-5.523,0-10,4.477-10,10v56c0,5.523,4.477,10,10,10h48c5.523,0,10-4.477,10-10V60
			C464.007,54.477,459.53,50,454.007,50z M444.007,106h-28V70h28V106z"/>
	</g>
</g>
<g>
	<g>
		<path d="M366.007,50h-48c-5.523,0-10,4.477-10,10v56c0,5.523,4.477,10,10,10h48c5.523,0,10-4.477,10-10V60
			C376.007,54.477,371.53,50,366.007,50z M356.007,106h-28V70h28V106z"/>
	</g>
</g>
<g>
	<g>
		<path d="M278.007,50h-48c-5.523,0-10,4.477-10,10v56c0,5.523,4.477,10,10,10h48c5.523,0,10-4.477,10-10V60
			C288.007,54.477,283.53,50,278.007,50z M268.007,106h-28V70h28V106z"/>
	</g>
</g>
<g>
	<g>
		<path d="M454.007,162h-48c-5.523,0-10,4.477-10,10v56c0,5.523,4.477,10,10,10h48c5.523,0,10-4.477,10-10v-56
			C464.007,166.477,459.53,162,454.007,162z M444.007,218h-28v-36h28V218z"/>
	</g>
</g>
<g>
	<g>
		<path d="M366.007,162h-48c-5.523,0-10,4.477-10,10v56c0,5.523,4.477,10,10,10h48c5.523,0,10-4.477,10-10v-56
			C376.007,166.477,371.53,162,366.007,162z M356.007,218h-28v-36h28V218z"/>
	</g>
</g>
<g>
	<g>
		<path d="M278.017,162h-0.01c-5.523,0-9.995,4.477-9.995,10s4.482,10,10.005,10s10-4.477,10-10S283.54,162,278.017,162z"/>
	</g>
</g>
<g>
	<g>
		<path d="M454.007,274h-48c-5.523,0-10,4.477-10,10v56c0,5.523,4.477,10,10,10h48c5.523,0,10-4.477,10-10v-56
			C464.007,278.477,459.53,274,454.007,274z M444.007,330h-28v-36h28V330z"/>
	</g>
</g>
<g>
	<g>
		<path d="M366.007,274h-48c-5.523,0-10,4.477-10,10v56c0,5.523,4.477,10,10,10h48c5.523,0,10-4.477,10-10v-56
			C376.007,278.477,371.53,274,366.007,274z M356.007,330h-28v-36h28V330z"/>
	</g>
</g>
<g>
	<g>
		<path d="M454.007,386h-48c-5.523,0-10,4.477-10,10v56c0,5.523,4.477,10,10,10h48c5.523,0,10-4.477,10-10v-56
			C464.007,390.477,459.53,386,454.007,386z M444.007,442h-28v-36h28V442z"/>
	</g>
</g>
<g>
	<g>
		<path d="M366.007,386h-48c-5.523,0-10,4.477-10,10v56c0,5.523,4.477,10,10,10h48c5.523,0,10-4.477,10-10v-56
			C376.007,390.477,371.53,386,366.007,386z M356.007,442h-28v-36h28V442z"/>
	</g>
</g>
<g>
	<g>
		<path d="M278.007,401.373c-5.523,0-10,4.477-10,10V442h-21.896c-5.523,0-10,4.477-10,10s4.477,10,10,10h31.896
			c5.523,0,10-4.477,10-10v-40.627C288.007,405.85,283.53,401.373,278.007,401.373z"/>
	</g>
</g>
<g>
	<g>
		<path d="M144.007,205.58c-43.726,0-79.299,35.573-79.299,79.299s35.574,79.299,79.299,79.299
			c43.725,0,79.299-35.573,79.299-79.299C223.306,241.153,187.733,205.58,144.007,205.58z M144.007,344.179
			c-32.698,0-59.299-26.602-59.299-59.299c0-32.697,26.602-59.299,59.299-59.299s59.299,26.602,59.299,59.299
			C203.306,317.577,176.705,344.179,144.007,344.179z"/>
	</g>
</g>
<g>
</g>
<g>
</g>
<g>
</g>
<g>
</g>
<g>
</g>
<g>
</g>
<g>
</g>
<g>
</g>
<g>
</g>
<g>
</g>
<g>
</g>
<g>
</g>
<g>
</g>
<g>
</g>
<g>
</g>
</svg>
